<svg xmlns="http://www.w3.org/2000/svg" width="120" height="120" viewBox="0 0 120 120">
  <!-- Upper left wing -->
  <path d="M 54 38 C 36 20 10 16 5 28 C 1 40 22 46 54 40" fill="none" stroke="#0284C7" stroke-width="1.3" opacity="0.85"/>
  <path d="M 54 41 C 38 26 14 22 9 33 C 5 43 26 47 54 43" fill="none" stroke="#0284C7" stroke-width="0.9" opacity="0.3"/>
  <!-- Upper right wing -->
  <path d="M 66 38 C 84 20 110 16 115 28 C 119 40 98 46 66 40" fill="none" stroke="#0284C7" stroke-width="1.3" opacity="0.85"/>
  <path d="M 66 41 C 82 26 106 22 111 33 C 115 43 94 47 66 43" fill="none" stroke="#0284C7" stroke-width="0.9" opacity="0.3"/>
  <!-- Lower left wing -->
  <path d="M 54 45 C 34 42 10 46 6 55 C 2 64 22 64 54 52" fill="none" stroke="#0EA5E9" stroke-width="1.1" opacity="0.7"/>
  <!-- Lower right wing -->
  <path d="M 66 45 C 86 42 110 46 114 55 C 118 64 98 64 66 52" fill="none" stroke="#0EA5E9" stroke-width="1.1" opacity="0.7"/>
  <!-- Head -->
  <circle cx="60" cy="25" r="9" fill="#0284C7"/>
  <circle cx="56" cy="22" r="2.5" fill="#F8FAFC"/>
  <circle cx="64" cy="22" r="2.5" fill="#F8FAFC"/>
  <!-- Antennae -->
  <line x1="56" y1="17" x2="50" y2="8" stroke="#0284C7" stroke-width="1" opacity="0.65"/>
  <line x1="64" y1="17" x2="70" y2="8" stroke="#0284C7" stroke-width="1" opacity="0.65"/>
  <circle cx="49" cy="7" r="1.8" fill="#0284C7" opacity="0.75"/>
  <circle cx="71" cy="7" r="1.8" fill="#0284C7" opacity="0.75"/>
  <!-- Thorax -->
  <rect x="56.5" y="33" width="7" height="10" rx="2.5" fill="#0EA5E9"/>
  <!-- Abdomen -->
  <rect x="57" y="44" width="6" height="4.5" rx="1.5" fill="#0284C7" opacity="0.9"/>
  <rect x="57.5" y="49.5" width="5" height="4" rx="1.2" fill="#0284C7" opacity="0.68"/>
  <rect x="58" y="54.5" width="4" height="3.5" rx="1" fill="#0284C7" opacity="0.42"/>
  <rect x="58.5" y="58.5" width="3" height="3" rx="1" fill="#0284C7" opacity="0.22"/>
  <!-- Wordmark -->
  <text x="60" y="86" font-family="'Courier New', Courier, monospace" font-size="16" font-weight="700" fill="#0F172A" text-anchor="middle" letter-spacing="-0.5">REST<tspan fill="#0284C7">Fly</tspan></text>
</svg>
